<!-- Generated by IcoMoon.io -->
<svg version="1.1" xmlns="http://www.w3.org/2000/svg" width="768" height="768" viewBox="0 0 768 768">
<title></title>
<g id="icomoon-ignore">
</g>
<path fill="#22607E" d="M672 160h-128v-32c0-54.4-41.6-96-96-96h-128c-54.4 0-96 41.6-96 96v32h-128c-19.2 0-32 12.8-32 32s12.8 32 32 32h32v416c0 54.4 41.6 96 96 96h320c54.4 0 96-41.6 96-96v-416h32c19.2 0 32-12.8 32-32s-12.8-32-32-32zM288 128c0-19.2 12.8-32 32-32h128c19.2 0 32 12.8 32 32v32h-192v-32zM576 640c0 19.2-12.8 32-32 32h-320c-19.2 0-32-12.8-32-32v-416h384v416z"></path>
<path fill="#22607E" d="M320 320c-19.2 0-32 12.8-32 32v192c0 19.2 12.8 32 32 32s32-12.8 32-32v-192c0-19.2-12.8-32-32-32z"></path>
<path fill="#22607E" d="M448 320c-19.2 0-32 12.8-32 32v192c0 19.2 12.8 32 32 32s32-12.8 32-32v-192c0-19.2-12.8-32-32-32z"></path>
</svg>
